Coordinates
version=1
nRows=8
nColumns=40
inDegrees=yes

Units are S.I. units (second, meters, Newtons, ...)
Angles are in degrees.

endheader
time	pelvis_tilt	pelvis_list	pelvis_rotation	pelvis_tx	pelvis_ty	pelvis_tz	hip_flexion_r	hip_adduction_r	hip_rotation_r	knee_angle_r	knee_angle_r_beta	ankle_angle_r	subtalar_angle_r	mtp_angle_r	hip_flexion_l	hip_adduction_l	hip_rotation_l	knee_angle_l	knee_angle_l_beta	ankle_angle_l	subtalar_angle_l	mtp_angle_l	lumbar_extension	lumbar_bending	lumbar_rotation	arm_flex_r	arm_add_r	arm_rot_r	elbow_flex_r	pro_sup_r	wrist_flex_r	wrist_dev_r	arm_flex_l	arm_add_l	arm_rot_l	elbow_flex_l	pro_sup_l	wrist_flex_l	wrist_dev_l
      0.25000000	     -4.20050589	      3.06307239	     -4.07384053	     -0.47514506	      0.91952487	      1.50620328	    -15.17040187	    -12.90959068	    -26.37189901	    -22.29043802	     -0.38904154	     -7.03865011	     10.02380420	    -10.60194369	     31.57508121	     -4.33657359	     19.21214744	    -25.01828599	     -0.43665146	     -0.39486853	     12.96951324	      1.90880056	     -1.57656634	     -7.28668177	      7.93958247	      6.00411459	    -21.00876407	    -17.60011468	     50.08084143	     89.95437384	      0.00000000	      0.00000000	    -18.49535065	     21.20754883	      4.49321818	      1.67540748	     89.95437384	      0.00000000	      0.00000000
      0.26000000	     -4.46152541	      3.44806556	     -3.86293180	     -0.45892938	      0.92085783	      1.50429016	    -13.89471352	    -14.07804525	    -25.97664951	    -25.04358170	     -0.43709296	    -10.85506191	      8.70358018	     -9.44935703	     31.33889086	     -5.04629162	     18.64670285	    -25.86164488	     -0.45137085	      0.24389150	     13.68401702	      2.01802874	     -0.94521153	     -7.57899432	      7.73740905	      4.87478874	    -20.68523027	    -17.64860277	     50.56759090	     89.95437384	      0.00000000	      0.00000000	    -19.15025744	     20.95520939	      3.82302217	      1.74848858	     89.95437384	      0.00000000	      0.00000000
      0.27000000	     -4.94713530	      3.98086137	     -3.55173872	     -0.44305150	      0.92197836	      1.50201013	    -12.17046802	    -15.24524375	    -25.09273599	    -27.69420339	     -0.48335503	    -15.47809344	      6.47286758	     -7.97302308	     31.02307630	     -6.10664744	     18.05562087	    -25.99657703	     -0.45372586	      0.78371101	     14.84268659	      2.35045486	     -0.07233755	     -8.00823356	      7.40150900	      3.77614018	    -20.32863485	    -17.58172029	     50.83302820	     89.95437384	      0.00000000	      0.00000000	    -19.75535761	     20.70425922	      3.14943589	      1.91860030	     89.95437384	      0.00000000	      0.00000000
      0.28000000	     -5.36733144	      4.22837057	     -3.22974333	     -0.42791927	      0.92324576	      1.50005015	    -10.20558238	    -15.94383305	    -23.61358391	    -30.60131553	     -0.53409371	    -19.56490037	      3.30081526	     -6.40849516	     30.43329064	     -6.92528639	     17.26752813	    -25.78124635	     -0.44996763	      1.37375478	     15.55746524	      2.75338162	      0.61963914	     -8.16154520	      7.01644938	      2.81992499	    -20.00548120	    -17.32480977	     50.93397162	     89.95437384	      0.00000000	      0.00000000	    -20.12255291	     20.41216868	      2.97930382	      2.12390904	     89.95437384	      0.00000000	      0.00000000
      0.29000000	     -5.81080504	      4.27816914	     -2.91888630	     -0.41326675	      0.92442359	      1.49832676	     -7.96398501	    -16.31772464	    -21.88815989	    -33.90765963	     -0.59180030	    -21.70984970	      0.89799972	     -5.34279167	     29.88003512	     -7.38235595	     16.82504495	    -25.70426620	     -0.44862408	      2.16888070	     15.70461474	      3.00171000	      1.27665720	     -8.08751506	      6.48388577	      2.08445650	    -19.71973116	    -16.83492420	     50.82992303	     89.95437384	      0.00000000	      0.00000000	    -20.36262248	     20.00926782	      3.29727498	      2.39326923	     89.95437384	      0.00000000	      0.00000000
      0.30000000	     -6.23342697	      4.40082628	     -2.63961672	     -0.39894047	      0.92562730	      1.49678218	     -5.57708691	    -16.77990064	    -20.40534938	    -37.51284220	     -0.65472261	    -22.15014543	     -1.85254391	     -4.68954314	     29.30897159	     -7.84413751	     16.49555017	    -25.62278986	     -0.44720205	      2.81993650	     15.69418131	      3.10336798	      1.89591959	     -8.11225854	      5.92133612	      1.44592549	    -19.42403010	    -16.16191586	     50.52666134	     89.95437384	      0.00000000	      0.00000000	    -20.49290785	     19.62401796	      3.80449488	      2.66747652	     89.95437384	      0.00000000	      0.00000000
      0.31000000	     -6.57515180	      4.57129727	     -2.31770357	     -0.38485905	      0.92706725	      1.49509115	     -3.18396417	    -17.34722361	    -19.52692726	    -41.08352293	     -0.71704274	    -21.67534684	     -5.20672576	     -3.99838361	     28.61959356	     -8.39952147	     16.03555264	    -25.41137064	     -0.44351209	      3.34724722	     15.60279612	      3.22953191	      2.37730653	     -8.19344549	      5.21944128	      0.96533745	    -19.00495951	    -15.66007411	     50.01368645	     89.95437384	      0.00000000	      0.00000000	    -20.45442086	     19.18148857	      4.91469467	      3.00515015	     89.95437384	      0.00000000	      0.00000000
      0.32000000	     -6.68079630	      4.69378087	     -2.04583276	     -0.37069908	      0.92907802	      1.49355968	     -1.10142900	    -17.83992444	    -19.05173641	    -44.33042760	     -0.77371192	    -20.24414903	     -7.80299221	     -3.14719606	     27.59769938	     -8.86849519	     15.62332839	    -25.08963404	     -0.43789672	      3.84804869	     15.39628382	      3.31279371	      2.60314772	     -8.23099307	      4.52094745	      0.55475343	    -18.52907257	    -15.25696186	     49.35448371	     89.95437384	      0.00000000	      0.00000000	    -20.29594001	     18.71925310	      5.39116862	      3.31699304	     89.95437384	      0.00000000	      0.00000000
